<svg xmlns="http://www.w3.org/2000/svg" xmlns:xlink="http://www.w3.org/1999/xlink" width="500" zoomAndPan="magnify" viewBox="0 0 375 374.999991" height="500" preserveAspectRatio="xMidYMid meet" version="1.0"><defs><filter x="0%" y="0%" width="100%" height="100%" id="5692ecb36f"><feColorMatrix values="0 0 0 0 1 0 0 0 0 1 0 0 0 0 1 0 0 0 1 0" color-interpolation-filters="sRGB"/></filter><g/><mask id="387c37cda1"><g filter="url(#5692ecb36f)"><rect x="-37.5" width="450" fill="#000000" y="-37.499999" height="449.999989" fill-opacity="0.9"/></g></mask><clipPath id="f7700c8826"><path d="M 1 1 L 157.921875 1 L 157.921875 131 L 1 131 Z M 1 1 " clip-rule="nonzero"/></clipPath><clipPath id="4e2a0835d4"><rect x="0" width="158" y="0" height="132"/></clipPath></defs><g mask="url(#387c37cda1)"><g transform="matrix(1, 0, 0, 1, 6, 123)"><g clip-path="url(#4e2a0835d4)"><g clip-path="url(#f7700c8826)"><path fill="#cbb26a" d="M 141.484375 4.125 C 140.25 5.679688 136.3125 11.070312 132.730469 16.105469 C 126.007812 25.558594 122.976562 29.292969 122.03125 29.292969 C 121.6875 29.292969 121.621094 28.34375 121.851562 26.738281 C 122.722656 20.628906 122.828125 18.527344 122.257812 18.527344 C 121.503906 18.527344 113.765625 29.867188 112.160156 33.332031 C 111.066406 35.6875 105.476562 57.324219 105.476562 59.195312 C 105.476562 59.707031 106.375 59.871094 108.757812 59.804688 C 111.933594 59.714844 112.097656 59.777344 113.738281 61.722656 C 114.671875 62.828125 116.527344 64.28125 117.859375 64.953125 C 119.785156 65.921875 120.582031 66.777344 121.753906 69.132812 C 123.671875 72.992188 123.902344 74.84375 122.433594 74.621094 C 121.84375 74.535156 119.628906 74.417969 117.511719 74.367188 C 113.691406 74.273438 113.652344 74.285156 111.199219 76.546875 C 109.203125 78.386719 108.34375 78.820312 106.699219 78.816406 C 103.910156 78.808594 99.886719 76.824219 93.4375 72.269531 C 84.050781 65.644531 82.136719 65.152344 63.484375 64.558594 C 53.890625 64.253906 46.765625 63.585938 45.628906 62.882812 C 44.882812 62.425781 45.144531 63.886719 46.238281 66.292969 C 46.851562 67.640625 47.0625 68.699219 46.753906 68.886719 C 46.472656 69.0625 43.613281 69.34375 40.40625 69.515625 C 30.464844 70.039062 19.039062 68.03125 9.488281 64.078125 C 3.789062 61.714844 2.324219 61.621094 1.449219 63.542969 C 0.867188 64.824219 0.953125 65.070312 2.355469 66.191406 C 4.519531 67.917969 14.5625 72.09375 20.535156 73.753906 C 23.285156 74.515625 25.894531 75.277344 26.339844 75.449219 C 27.996094 76.085938 23.785156 76.542969 15.574219 76.613281 C 10.984375 76.652344 6.671875 76.832031 5.996094 77.011719 C 1.566406 78.199219 12.253906 82.410156 23.425781 83.882812 C 29.042969 84.621094 29.042969 84.550781 23.378906 85.90625 C 19.71875 86.777344 17.726562 87.5 17.726562 87.949219 C 17.726562 88.589844 22.363281 90.464844 27.195312 91.78125 C 29.539062 92.417969 31.558594 93.035156 31.683594 93.152344 C 31.808594 93.273438 31.386719 93.859375 30.742188 94.460938 C 29.078125 96.011719 29.285156 97.0625 31.4375 97.960938 C 34.050781 99.054688 36.183594 98.925781 41.144531 97.386719 C 43.511719 96.648438 45.652344 96.046875 45.902344 96.046875 C 46.148438 96.046875 46.191406 97.015625 45.988281 98.203125 C 45.523438 100.96875 46.046875 100.984375 51.40625 98.335938 L 55.5 96.316406 L 56.398438 97.511719 C 56.976562 98.285156 57.550781 99.066406 58.113281 99.851562 C 58.867188 100.914062 59.113281 100.953125 61.28125 100.367188 L 63.632812 99.734375 L 66.136719 102.199219 C 67.511719 103.554688 68.902344 104.660156 69.222656 104.660156 C 69.546875 104.660156 70.949219 104.15625 72.34375 103.542969 C 74.730469 102.484375 74.933594 102.472656 75.886719 103.332031 C 76.644531 104.019531 77.40625 104.160156 78.9375 103.894531 C 84.707031 102.902344 84.660156 102.898438 86.910156 104.53125 L 89.070312 106.097656 L 92.5625 104.863281 C 96.121094 103.605469 98.476562 103.257812 98.476562 103.992188 C 98.476562 104.214844 98.230469 105.246094 97.929688 106.28125 C 96.71875 110.414062 96.34375 115.335938 96.890625 119.820312 C 97.398438 123.980469 98.773438 130.441406 99.253906 130.921875 C 99.566406 131.234375 101.816406 129.972656 103.203125 128.710938 C 104.378906 127.640625 104.492188 127.632812 105.976562 128.511719 C 108.078125 129.753906 109.183594 129.664062 111.53125 128.066406 C 112.628906 127.320312 114.746094 126.480469 116.230469 126.199219 C 119.433594 125.589844 121.503906 124.59375 122.972656 122.949219 C 123.566406 122.289062 125.867188 120.417969 128.085938 118.785156 C 130.308594 117.15625 133.582031 114.339844 135.363281 112.53125 C 137.148438 110.71875 139.265625 108.800781 140.074219 108.269531 C 141.207031 107.527344 141.546875 106.875 141.546875 105.445312 C 141.546875 104.421875 141.363281 103.570312 141.140625 103.550781 C 140.917969 103.53125 137.347656 103.332031 133.199219 103.109375 C 126.113281 102.726562 125.441406 102.59375 121.894531 100.855469 C 119.824219 99.839844 118.054688 98.613281 117.964844 98.128906 C 117.875 97.636719 119.4375 95.484375 121.527344 93.230469 C 125.664062 88.773438 127.703125 85.59375 128.585938 82.242188 C 128.910156 81.011719 129.527344 79.875 129.953125 79.710938 C 130.410156 79.535156 130.878906 78.324219 131.082031 76.796875 C 131.339844 74.835938 131.714844 74.058594 132.582031 73.675781 C 133.527344 73.261719 133.871094 72.371094 134.441406 68.863281 C 134.828125 66.492188 135.433594 64.125 135.789062 63.601562 C 136.140625 63.078125 139.582031 60.386719 143.429688 57.617188 C 147.277344 54.847656 150.308594 52.371094 150.160156 52.109375 C 149.867188 51.597656 149.523438 51.601562 146.65625 52.140625 L 144.773438 52.492188 L 144.773438 50.125 C 144.773438 47.566406 144.769531 47.574219 150.820312 39.695312 C 154.304688 35.160156 157.695312 29.523438 157.695312 28.277344 C 157.695312 27.113281 156.523438 27.707031 153.761719 30.265625 C 149.0625 34.617188 144.503906 37.816406 143.886719 37.199219 C 143.414062 36.722656 146.90625 30.417969 151.003906 24.359375 C 156.355469 16.441406 157.695312 14.097656 157.695312 12.664062 C 157.695312 11.476562 157.683594 11.476562 156.054688 12.4375 C 154.507812 13.351562 151.761719 16.441406 144.671875 25.257812 C 134.851562 37.460938 138.15625 29.089844 150.601562 10.230469 C 153.320312 6.113281 155.542969 2.539062 155.542969 2.292969 C 155.542969 2.042969 155.171875 1.839844 154.714844 1.839844 C 153.183594 1.839844 146.488281 9.226562 142.4375 15.382812 C 140.226562 18.746094 137.910156 21.957031 137.289062 22.519531 C 136.171875 23.527344 136.160156 23.527344 136.160156 22.195312 C 136.160156 19.96875 138.132812 14.9375 141.546875 8.433594 C 143.324219 5.054688 144.777344 2.066406 144.777344 1.792969 C 144.777344 0.636719 143.578125 1.484375 141.484375 4.125 M 108.167969 63.046875 C 107.722656 63.207031 105.714844 64.050781 103.703125 64.917969 C 101.691406 65.789062 99.632812 66.457031 99.128906 66.40625 C 96.90625 66.183594 95.835938 66.507812 95.527344 67.488281 C 94.636719 70.285156 98.746094 73.636719 104.136719 74.515625 C 107.394531 75.046875 108.707031 74.804688 108.707031 73.671875 C 108.707031 72.839844 113.425781 71.285156 115.953125 71.285156 C 116.867188 71.285156 118.171875 71.671875 118.851562 72.148438 C 120.441406 73.261719 120.640625 72.996094 119.980469 70.617188 C 119.398438 68.503906 116.753906 65.902344 115.191406 65.902344 C 114.65625 65.902344 113.90625 65.523438 113.523438 65.058594 C 112.773438 64.15625 110.117188 62.644531 109.40625 62.714844 C 109.167969 62.738281 108.613281 62.886719 108.167969 63.046875 " fill-opacity="1" fill-rule="evenodd"/></g></g></g></g><g fill="#ffffff" fill-opacity="1"><g transform="translate(105.53495, 222.665483)"><g><path d="M 23 0.6875 C 18.738281 0.6875 14.976562 -0.238281 11.71875 -2.09375 C 8.457031 -3.957031 5.90625 -6.613281 4.0625 -10.0625 C 2.226562 -13.507812 1.3125 -17.632812 1.3125 -22.4375 L 9.46875 -22.4375 C 9.46875 -19.550781 9.851562 -17.101562 10.625 -15.09375 C 11.394531 -13.09375 12.4375 -11.476562 13.75 -10.25 C 15.070312 -9.019531 16.535156 -8.117188 18.140625 -7.546875 C 19.753906 -6.984375 21.375 -6.703125 23 -6.703125 C 25.300781 -6.703125 27.398438 -7.242188 29.296875 -8.328125 C 31.203125 -9.421875 32.726562 -11.039062 33.875 -13.1875 C 35.03125 -15.34375 35.609375 -18.03125 35.609375 -21.25 L 35.609375 -36.671875 L 16.671875 -36.671875 L 16.671875 -43.875 L 44.25 -43.875 L 44.25 -21.25 C 44.25 -17.03125 43.390625 -13.269531 41.671875 -9.96875 C 39.960938 -6.664062 37.519531 -4.0625 34.34375 -2.15625 C 31.175781 -0.257812 27.394531 0.6875 23 0.6875 Z M 23 0.6875 "/></g></g></g><g fill="#ffffff" fill-opacity="1"><g transform="translate(154.491426, 222.665483)"><g><path d="M 3.078125 0 L 3.078125 -43.875 L 38.171875 -43.875 L 38.171875 -36.421875 L 11.46875 -36.421875 L 11.46875 -25.515625 L 37.109375 -25.515625 L 37.109375 -18.3125 L 11.46875 -18.3125 L 11.46875 -7.453125 L 38.171875 -7.453125 L 38.171875 0 Z M 3.078125 0 "/></g></g></g><g fill="#ffffff" fill-opacity="1"><g transform="translate(195.549664, 222.665483)"><g><path d="M 2.5 0 L 2.5 -44 L 23.0625 -44 C 27.414062 -44 31.242188 -43.035156 34.546875 -41.109375 C 37.847656 -39.191406 40.414062 -36.570312 42.25 -33.25 C 44.09375 -29.925781 45.015625 -26.175781 45.015625 -22 C 45.015625 -17.820312 44.09375 -14.070312 42.25 -10.75 C 40.414062 -7.425781 37.859375 -4.800781 34.578125 -2.875 C 31.296875 -0.957031 27.457031 0 23.0625 0 Z M 11.40625 -7.390625 L 23.1875 -7.390625 C 25.820312 -7.390625 28.117188 -8.015625 30.078125 -9.265625 C 32.046875 -10.523438 33.570312 -12.226562 34.65625 -14.375 C 35.75 -16.53125 36.296875 -18.96875 36.296875 -21.6875 C 36.296875 -24.445312 35.757812 -26.941406 34.6875 -29.171875 C 33.625 -31.410156 32.109375 -33.1875 30.140625 -34.5 C 28.179688 -35.820312 25.863281 -36.484375 23.1875 -36.484375 L 11.40625 -36.484375 Z M 11.40625 -7.390625 "/></g></g></g><g fill="#ffffff" fill-opacity="1"><g transform="translate(237.055859, 224.992151)"><g><path d="M 41.375 -1.03125 C 41.375 -0.664062 41.316406 -0.398438 41.203125 -0.234375 C 41.085938 -0.078125 40.828125 0 40.421875 0 L 34.0625 0 C 33.238281 0 32.757812 -0.34375 32.625 -1.03125 C 32.488281 -3.394531 31.816406 -5.660156 30.609375 -7.828125 C 29.398438 -9.992188 28.019531 -11.988281 26.46875 -13.8125 C 24.914062 -15.632812 23.523438 -17.140625 22.296875 -18.328125 C 22.296875 -18.421875 22.25 -18.421875 22.15625 -18.328125 C 20.925781 -17.140625 19.535156 -15.632812 17.984375 -13.8125 C 16.429688 -11.988281 15.0625 -9.992188 13.875 -7.828125 C 12.695312 -5.660156 12.015625 -3.394531 11.828125 -1.03125 C 11.785156 -0.34375 11.351562 0 10.53125 0 L 4.03125 0 C 3.625 0 3.363281 -0.078125 3.25 -0.234375 C 3.132812 -0.398438 3.078125 -0.664062 3.078125 -1.03125 C 3.210938 -3.488281 3.835938 -5.890625 4.953125 -8.234375 C 6.078125 -10.585938 7.390625 -12.765625 8.890625 -14.765625 C 10.390625 -16.773438 11.847656 -18.5 13.265625 -19.9375 C 14.679688 -21.375 15.753906 -22.429688 16.484375 -23.109375 C 16.484375 -23.109375 16.484375 -23.117188 16.484375 -23.140625 C 16.484375 -23.171875 16.4375 -23.207031 16.34375 -23.25 C 15.613281 -23.882812 14.550781 -24.863281 13.15625 -26.1875 C 11.769531 -27.507812 10.335938 -29.082031 8.859375 -30.90625 C 7.378906 -32.726562 6.078125 -34.742188 4.953125 -36.953125 C 3.835938 -39.171875 3.210938 -41.507812 3.078125 -43.96875 C 3.078125 -44.332031 3.132812 -44.59375 3.25 -44.75 C 3.363281 -44.914062 3.625 -45 4.03125 -45 L 10.53125 -45 C 10.894531 -45 11.191406 -44.929688 11.421875 -44.796875 C 11.648438 -44.660156 11.785156 -44.382812 11.828125 -43.96875 C 12.015625 -41.644531 12.6875 -39.457031 13.84375 -37.40625 C 15.007812 -35.351562 16.367188 -33.515625 17.921875 -31.890625 C 19.472656 -30.273438 20.863281 -28.921875 22.09375 -27.828125 C 22.132812 -27.828125 22.1875 -27.816406 22.25 -27.796875 C 22.320312 -27.773438 22.382812 -27.785156 22.4375 -27.828125 C 23.664062 -28.921875 25.039062 -30.273438 26.5625 -31.890625 C 28.09375 -33.515625 29.453125 -35.351562 30.640625 -37.40625 C 31.828125 -39.457031 32.488281 -41.644531 32.625 -43.96875 C 32.757812 -44.65625 33.238281 -45 34.0625 -45 L 40.421875 -45 C 40.828125 -45 41.085938 -44.914062 41.203125 -44.75 C 41.316406 -44.59375 41.375 -44.332031 41.375 -43.96875 C 41.238281 -41.507812 40.609375 -39.171875 39.484375 -36.953125 C 38.367188 -34.742188 37.070312 -32.726562 35.59375 -30.90625 C 34.113281 -29.082031 32.675781 -27.507812 31.28125 -26.1875 C 29.894531 -24.863281 28.835938 -23.882812 28.109375 -23.25 C 28.109375 -23.25 28.097656 -23.222656 28.078125 -23.171875 C 28.054688 -23.128906 28.066406 -23.085938 28.109375 -23.046875 C 28.835938 -22.359375 29.894531 -21.296875 31.28125 -19.859375 C 32.675781 -18.429688 34.113281 -16.710938 35.59375 -14.703125 C 37.070312 -12.691406 38.367188 -10.523438 39.484375 -8.203125 C 40.609375 -5.878906 41.238281 -3.488281 41.375 -1.03125 Z M 41.375 -1.03125 "/></g></g></g><g fill="#f5f5f5" fill-opacity="1"><g transform="translate(111.920383, 239.230675)"><g><path d="M 2.53125 0.109375 C 1.757812 0.109375 1.21875 -0.0546875 0.90625 -0.390625 C 0.59375 -0.734375 0.425781 -1.289062 0.40625 -2.0625 C 0.382812 -2.65625 0.382812 -3.253906 0.40625 -3.859375 L 1.734375 -3.859375 C 1.722656 -3.554688 1.71875 -3.210938 1.71875 -2.828125 C 1.71875 -2.453125 1.722656 -2.113281 1.734375 -1.8125 C 1.742188 -1.550781 1.8125 -1.359375 1.9375 -1.234375 C 2.0625 -1.117188 2.257812 -1.0625 2.53125 -1.0625 C 2.800781 -1.0625 3 -1.117188 3.125 -1.234375 C 3.25 -1.359375 3.3125 -1.550781 3.3125 -1.8125 L 3.3125 -10.453125 L 4.71875 -10.453125 L 4.71875 -2.0625 C 4.71875 -1.289062 4.550781 -0.734375 4.21875 -0.390625 C 3.894531 -0.0546875 3.332031 0.109375 2.53125 0.109375 Z M 2.53125 0.109375 "/></g></g></g><g fill="#f5f5f5" fill-opacity="1"><g transform="translate(119.470246, 239.230675)"><g><path d="M 2.859375 0.109375 C 2.066406 0.109375 1.5 -0.0546875 1.15625 -0.390625 C 0.8125 -0.722656 0.632812 -1.273438 0.625 -2.046875 C 0.59375 -4.847656 0.59375 -7.648438 0.625 -10.453125 L 2.03125 -10.453125 C 2.019531 -9.054688 2.015625 -7.613281 2.015625 -6.125 C 2.015625 -4.632812 2.019531 -3.191406 2.03125 -1.796875 C 2.03125 -1.304688 2.304688 -1.0625 2.859375 -1.0625 C 3.398438 -1.0625 3.671875 -1.304688 3.671875 -1.796875 C 3.679688 -3.191406 3.6875 -4.632812 3.6875 -6.125 C 3.695312 -7.613281 3.691406 -9.054688 3.671875 -10.453125 L 5.078125 -10.453125 C 5.117188 -7.648438 5.117188 -4.847656 5.078125 -2.046875 C 5.066406 -1.273438 4.890625 -0.722656 4.546875 -0.390625 C 4.203125 -0.0546875 3.640625 0.109375 2.859375 0.109375 Z M 2.859375 0.109375 "/></g></g></g><g fill="#f5f5f5" fill-opacity="1"><g transform="translate(127.411926, 239.230675)"><g><path d="M 2.875 0.109375 C 2.09375 0.109375 1.535156 -0.0546875 1.203125 -0.390625 C 0.867188 -0.734375 0.6875 -1.289062 0.65625 -2.0625 C 0.644531 -2.363281 0.640625 -2.660156 0.640625 -2.953125 C 0.648438 -3.242188 0.664062 -3.546875 0.6875 -3.859375 L 2.03125 -3.859375 C 2.007812 -3.492188 1.992188 -3.132812 1.984375 -2.78125 C 1.984375 -2.4375 2 -2.113281 2.03125 -1.8125 C 2.039062 -1.550781 2.113281 -1.359375 2.25 -1.234375 C 2.382812 -1.117188 2.59375 -1.0625 2.875 -1.0625 C 3.144531 -1.0625 3.34375 -1.117188 3.46875 -1.234375 C 3.59375 -1.359375 3.664062 -1.550781 3.6875 -1.8125 C 3.707031 -2.113281 3.710938 -2.382812 3.703125 -2.625 C 3.703125 -2.863281 3.695312 -3.144531 3.6875 -3.46875 C 3.664062 -3.71875 3.609375 -3.929688 3.515625 -4.109375 C 3.429688 -4.296875 3.28125 -4.421875 3.0625 -4.484375 L 2.1875 -4.703125 C 1.59375 -4.847656 1.1875 -5.101562 0.96875 -5.46875 C 0.75 -5.832031 0.628906 -6.332031 0.609375 -6.96875 C 0.609375 -7.195312 0.609375 -7.429688 0.609375 -7.671875 C 0.609375 -7.921875 0.613281 -8.164062 0.625 -8.40625 C 0.65625 -9.175781 0.835938 -9.722656 1.171875 -10.046875 C 1.503906 -10.378906 2.070312 -10.546875 2.875 -10.546875 C 3.625 -10.546875 4.164062 -10.378906 4.5 -10.046875 C 4.84375 -9.722656 5.03125 -9.175781 5.0625 -8.40625 C 5.0625 -8.1875 5.0625 -7.921875 5.0625 -7.609375 C 5.0625 -7.296875 5.054688 -6.984375 5.046875 -6.671875 L 3.6875 -6.671875 C 3.695312 -7.003906 3.703125 -7.332031 3.703125 -7.65625 C 3.703125 -7.988281 3.695312 -8.316406 3.6875 -8.640625 C 3.664062 -9.140625 3.390625 -9.390625 2.859375 -9.390625 C 2.585938 -9.390625 2.382812 -9.328125 2.25 -9.203125 C 2.125 -9.085938 2.050781 -8.898438 2.03125 -8.640625 C 2.007812 -8.367188 2 -8.085938 2 -7.796875 C 2.007812 -7.515625 2.019531 -7.238281 2.03125 -6.96875 C 2.050781 -6.675781 2.109375 -6.445312 2.203125 -6.28125 C 2.296875 -6.113281 2.460938 -6 2.703125 -5.9375 L 3.484375 -5.765625 C 4.109375 -5.609375 4.523438 -5.34375 4.734375 -4.96875 C 4.953125 -4.59375 5.078125 -4.09375 5.109375 -3.46875 C 5.117188 -3.1875 5.117188 -2.941406 5.109375 -2.734375 C 5.109375 -2.535156 5.101562 -2.3125 5.09375 -2.0625 C 5.070312 -1.289062 4.890625 -0.734375 4.546875 -0.390625 C 4.203125 -0.0546875 3.644531 0.109375 2.875 0.109375 Z M 2.875 0.109375 "/></g></g></g><g fill="#f5f5f5" fill-opacity="1"><g transform="translate(135.366671, 239.230675)"><g><path d="M 1.8125 0 L 1.8125 -9.203125 L 0.296875 -9.203125 L 0.296875 -10.453125 L 4.734375 -10.453125 L 4.734375 -9.203125 L 3.21875 -9.203125 L 3.21875 0 Z M 1.8125 0 "/></g></g></g><g fill="#f5f5f5" fill-opacity="1"><g transform="translate(142.629197, 239.230675)"><g/></g></g><g fill="#f5f5f5" fill-opacity="1"><g transform="translate(147.658357, 239.230675)"><g><path d="M 0.59375 0 L 0.59375 -10.453125 L 4.34375 -10.453125 L 4.34375 -9.203125 L 2.03125 -9.203125 L 2.03125 -5.921875 L 4.203125 -5.921875 L 4.203125 -4.65625 L 2.03125 -4.65625 L 2.03125 -1.25 L 4.34375 -1.25 L 4.34375 0 Z M 0.59375 0 "/></g></g></g><g fill="#f5f5f5" fill-opacity="1"><g transform="translate(154.581306, 239.230675)"><g><path d="M 0.296875 0 L 1.734375 -5.375 L 0.359375 -10.453125 L 1.734375 -10.453125 L 2.328125 -8.03125 L 2.59375 -5.9375 L 2.796875 -5.9375 L 3.0625 -8.03125 L 3.640625 -10.453125 L 5.03125 -10.453125 L 3.703125 -5.328125 L 5.078125 0 L 3.703125 0 L 3.0625 -2.578125 L 2.796875 -4.6875 L 2.59375 -4.6875 L 2.328125 -2.578125 L 1.6875 0 Z M 0.296875 0 "/></g></g></g><g fill="#f5f5f5" fill-opacity="1"><g transform="translate(162.196473, 239.230675)"><g><path d="M 0.59375 0 L 0.59375 -10.453125 L 4.34375 -10.453125 L 4.34375 -9.203125 L 2.03125 -9.203125 L 2.03125 -5.921875 L 4.203125 -5.921875 L 4.203125 -4.65625 L 2.03125 -4.65625 L 2.03125 -1.25 L 4.34375 -1.25 L 4.34375 0 Z M 0.59375 0 "/></g></g></g><g fill="#f5f5f5" fill-opacity="1"><g transform="translate(169.119422, 239.230675)"><g><path d="M 0.59375 0 L 0.59375 -10.453125 L 2.671875 -10.453125 C 3.441406 -10.453125 4.003906 -10.285156 4.359375 -9.953125 C 4.710938 -9.617188 4.898438 -9.078125 4.921875 -8.328125 C 4.941406 -7.847656 4.953125 -7.425781 4.953125 -7.0625 C 4.953125 -6.695312 4.941406 -6.300781 4.921875 -5.875 C 4.890625 -4.90625 4.566406 -4.28125 3.953125 -4 L 5.09375 0 L 3.59375 0 L 2.625 -3.765625 L 2.03125 -3.765625 L 2.03125 0 Z M 2.03125 -5.015625 L 2.65625 -5.015625 C 3.195312 -5.015625 3.484375 -5.273438 3.515625 -5.796875 C 3.554688 -6.671875 3.554688 -7.539062 3.515625 -8.40625 C 3.484375 -8.9375 3.203125 -9.203125 2.671875 -9.203125 L 2.03125 -9.203125 Z M 2.03125 -5.015625 "/></g></g></g><g fill="#f5f5f5" fill-opacity="1"><g transform="translate(176.760707, 239.230675)"><g><path d="M 2.84375 0.125 C 2.050781 0.125 1.488281 -0.0390625 1.15625 -0.375 C 0.820312 -0.71875 0.644531 -1.273438 0.625 -2.046875 C 0.613281 -2.703125 0.601562 -3.394531 0.59375 -4.125 C 0.59375 -4.851562 0.59375 -5.582031 0.59375 -6.3125 C 0.601562 -7.050781 0.613281 -7.75 0.625 -8.40625 C 0.632812 -9.082031 0.8125 -9.609375 1.15625 -9.984375 C 1.507812 -10.359375 2.070312 -10.546875 2.84375 -10.546875 C 3.613281 -10.546875 4.171875 -10.378906 4.515625 -10.046875 C 4.859375 -9.710938 5.039062 -9.164062 5.0625 -8.40625 C 5.0625 -8.164062 5.0625 -7.875 5.0625 -7.53125 C 5.0625 -7.195312 5.0625 -6.910156 5.0625 -6.671875 L 3.640625 -6.671875 C 3.640625 -6.960938 3.640625 -7.289062 3.640625 -7.65625 C 3.648438 -8.019531 3.648438 -8.347656 3.640625 -8.640625 C 3.628906 -9.140625 3.363281 -9.390625 2.84375 -9.390625 C 2.320312 -9.390625 2.050781 -9.140625 2.03125 -8.640625 C 2.007812 -7.535156 2 -6.394531 2 -5.21875 C 2 -4.050781 2.007812 -2.910156 2.03125 -1.796875 C 2.050781 -1.296875 2.320312 -1.046875 2.84375 -1.046875 C 3.40625 -1.046875 3.691406 -1.296875 3.703125 -1.796875 C 3.703125 -2.109375 3.703125 -2.453125 3.703125 -2.828125 C 3.703125 -3.203125 3.703125 -3.539062 3.703125 -3.84375 L 5.109375 -3.84375 C 5.117188 -3.550781 5.125 -3.253906 5.125 -2.953125 C 5.125 -2.648438 5.117188 -2.347656 5.109375 -2.046875 C 5.085938 -1.273438 4.898438 -0.71875 4.546875 -0.375 C 4.191406 -0.0390625 3.625 0.125 2.84375 0.125 Z M 2.84375 0.125 "/></g></g></g><g fill="#f5f5f5" fill-opacity="1"><g transform="translate(184.506478, 239.230675)"><g><path d="M 0.59375 0 L 0.59375 -10.453125 L 2.03125 -10.453125 L 2.03125 0 Z M 0.59375 0 "/></g></g></g><g fill="#f5f5f5" fill-opacity="1"><g transform="translate(189.365847, 239.230675)"><g><path d="M 2.875 0.109375 C 2.09375 0.109375 1.535156 -0.0546875 1.203125 -0.390625 C 0.867188 -0.734375 0.6875 -1.289062 0.65625 -2.0625 C 0.644531 -2.363281 0.640625 -2.660156 0.640625 -2.953125 C 0.648438 -3.242188 0.664062 -3.546875 0.6875 -3.859375 L 2.03125 -3.859375 C 2.007812 -3.492188 1.992188 -3.132812 1.984375 -2.78125 C 1.984375 -2.4375 2 -2.113281 2.03125 -1.8125 C 2.039062 -1.550781 2.113281 -1.359375 2.25 -1.234375 C 2.382812 -1.117188 2.59375 -1.0625 2.875 -1.0625 C 3.144531 -1.0625 3.34375 -1.117188 3.46875 -1.234375 C 3.59375 -1.359375 3.664062 -1.550781 3.6875 -1.8125 C 3.707031 -2.113281 3.710938 -2.382812 3.703125 -2.625 C 3.703125 -2.863281 3.695312 -3.144531 3.6875 -3.46875 C 3.664062 -3.71875 3.609375 -3.929688 3.515625 -4.109375 C 3.429688 -4.296875 3.28125 -4.421875 3.0625 -4.484375 L 2.1875 -4.703125 C 1.59375 -4.847656 1.1875 -5.101562 0.96875 -5.46875 C 0.75 -5.832031 0.628906 -6.332031 0.609375 -6.96875 C 0.609375 -7.195312 0.609375 -7.429688 0.609375 -7.671875 C 0.609375 -7.921875 0.613281 -8.164062 0.625 -8.40625 C 0.65625 -9.175781 0.835938 -9.722656 1.171875 -10.046875 C 1.503906 -10.378906 2.070312 -10.546875 2.875 -10.546875 C 3.625 -10.546875 4.164062 -10.378906 4.5 -10.046875 C 4.84375 -9.722656 5.03125 -9.175781 5.0625 -8.40625 C 5.0625 -8.1875 5.0625 -7.921875 5.0625 -7.609375 C 5.0625 -7.296875 5.054688 -6.984375 5.046875 -6.671875 L 3.6875 -6.671875 C 3.695312 -7.003906 3.703125 -7.332031 3.703125 -7.65625 C 3.703125 -7.988281 3.695312 -8.316406 3.6875 -8.640625 C 3.664062 -9.140625 3.390625 -9.390625 2.859375 -9.390625 C 2.585938 -9.390625 2.382812 -9.328125 2.25 -9.203125 C 2.125 -9.085938 2.050781 -8.898438 2.03125 -8.640625 C 2.007812 -8.367188 2 -8.085938 2 -7.796875 C 2.007812 -7.515625 2.019531 -7.238281 2.03125 -6.96875 C 2.050781 -6.675781 2.109375 -6.445312 2.203125 -6.28125 C 2.296875 -6.113281 2.460938 -6 2.703125 -5.9375 L 3.484375 -5.765625 C 4.109375 -5.609375 4.523438 -5.34375 4.734375 -4.96875 C 4.953125 -4.59375 5.078125 -4.09375 5.109375 -3.46875 C 5.117188 -3.1875 5.117188 -2.941406 5.109375 -2.734375 C 5.109375 -2.535156 5.101562 -2.3125 5.09375 -2.0625 C 5.070312 -1.289062 4.890625 -0.734375 4.546875 -0.390625 C 4.203125 -0.0546875 3.644531 0.109375 2.875 0.109375 Z M 2.875 0.109375 "/></g></g></g><g fill="#f5f5f5" fill-opacity="1"><g transform="translate(197.320592, 239.230675)"><g><path d="M 0.59375 0 L 0.59375 -10.453125 L 4.34375 -10.453125 L 4.34375 -9.203125 L 2.03125 -9.203125 L 2.03125 -5.921875 L 4.203125 -5.921875 L 4.203125 -4.65625 L 2.03125 -4.65625 L 2.03125 -1.25 L 4.34375 -1.25 L 4.34375 0 Z M 0.59375 0 "/></g></g></g><g fill="#f5f5f5" fill-opacity="1"><g transform="translate(204.243541, 239.230675)"><g/></g></g><g fill="#f5f5f5" fill-opacity="1"><g transform="translate(209.272701, 239.230675)"><g><path d="M 0.59375 0 L 0.59375 -10.453125 L 2.765625 -10.453125 C 3.546875 -10.453125 4.113281 -10.28125 4.46875 -9.9375 C 4.820312 -9.59375 5.007812 -9.03125 5.03125 -8.25 C 5.050781 -7.53125 5.0625 -6.84375 5.0625 -6.1875 C 5.0625 -5.539062 5.0625 -4.894531 5.0625 -4.25 C 5.0625 -3.613281 5.050781 -2.9375 5.03125 -2.21875 C 5.007812 -1.425781 4.820312 -0.859375 4.46875 -0.515625 C 4.113281 -0.171875 3.539062 0 2.75 0 Z M 2.03125 -1.25 L 2.75 -1.25 C 3.320312 -1.25 3.613281 -1.515625 3.625 -2.046875 C 3.664062 -4.160156 3.664062 -6.28125 3.625 -8.40625 C 3.613281 -8.9375 3.328125 -9.203125 2.765625 -9.203125 L 2.03125 -9.203125 Z M 2.03125 -1.25 "/></g></g></g><g fill="#f5f5f5" fill-opacity="1"><g transform="translate(217.175194, 239.230675)"><g><path d="M 0.296875 0 L 1.578125 -10.453125 L 3.9375 -10.453125 L 5.21875 0 L 3.78125 0 L 3.53125 -2.609375 L 2 -2.609375 L 1.75 0 Z M 2.125 -3.859375 L 3.390625 -3.859375 L 3.15625 -6.15625 L 2.9375 -9.203125 L 2.578125 -9.203125 L 2.34375 -6.15625 Z M 2.125 -3.859375 "/></g></g></g><g fill="#f5f5f5" fill-opacity="1"><g transform="translate(224.881789, 239.230675)"><g><path d="M 0.59375 0 L 0.59375 -10.453125 L 2.03125 -10.453125 L 2.03125 0 Z M 0.59375 0 "/></g></g></g><g fill="#f5f5f5" fill-opacity="1"><g transform="translate(229.741158, 239.230675)"><g><path d="M 0.59375 0 L 0.59375 -10.453125 L 2.03125 -10.453125 L 2.03125 -1.25 L 4.34375 -1.25 L 4.34375 0 Z M 0.59375 0 "/></g></g></g><g fill="#f5f5f5" fill-opacity="1"><g transform="translate(236.624925, 239.230675)"><g><path d="M 2 0 L 2 -2.609375 L 1.875 -3.140625 L 0.296875 -10.453125 L 1.75 -10.453125 L 2.265625 -7.703125 L 2.5625 -4.671875 L 2.84375 -4.671875 L 3.140625 -7.703125 L 3.65625 -10.453125 L 5.109375 -10.453125 L 3.53125 -3.140625 L 3.40625 -2.609375 L 3.40625 0 Z M 2 0 "/></g></g></g><g fill="#f5f5f5" fill-opacity="1"><g transform="translate(244.26621, 239.230675)"><g/></g></g><g fill="#f5f5f5" fill-opacity="1"><g transform="translate(249.29537, 239.230675)"><g><path d="M 0.59375 0 L 0.59375 -10.453125 L 4.34375 -10.453125 L 4.34375 -9.203125 L 2.03125 -9.203125 L 2.03125 -5.921875 L 4.203125 -5.921875 L 4.203125 -4.65625 L 2.03125 -4.65625 L 2.03125 0 Z M 0.59375 0 "/></g></g></g><g fill="#f5f5f5" fill-opacity="1"><g transform="translate(256.218319, 239.230675)"><g><path d="M 2.875 0.109375 C 2.09375 0.109375 1.53125 -0.0546875 1.1875 -0.390625 C 0.84375 -0.722656 0.660156 -1.273438 0.640625 -2.046875 C 0.597656 -4.160156 0.597656 -6.28125 0.640625 -8.40625 C 0.660156 -9.175781 0.84375 -9.722656 1.1875 -10.046875 C 1.53125 -10.378906 2.09375 -10.546875 2.875 -10.546875 C 3.65625 -10.546875 4.210938 -10.378906 4.546875 -10.046875 C 4.890625 -9.722656 5.078125 -9.175781 5.109375 -8.40625 C 5.160156 -6.28125 5.160156 -4.160156 5.109375 -2.046875 C 5.078125 -1.273438 4.890625 -0.722656 4.546875 -0.390625 C 4.210938 -0.0546875 3.65625 0.109375 2.875 0.109375 Z M 2.875 -1.0625 C 3.40625 -1.0625 3.679688 -1.304688 3.703125 -1.796875 C 3.722656 -2.523438 3.734375 -3.28125 3.734375 -4.0625 C 3.742188 -4.84375 3.742188 -5.625 3.734375 -6.40625 C 3.722656 -7.195312 3.710938 -7.945312 3.703125 -8.65625 C 3.679688 -9.144531 3.40625 -9.390625 2.875 -9.390625 C 2.332031 -9.390625 2.054688 -9.144531 2.046875 -8.65625 C 2.023438 -7.945312 2.007812 -7.195312 2 -6.40625 C 1.988281 -5.625 1.988281 -4.84375 2 -4.0625 C 2.007812 -3.28125 2.023438 -2.523438 2.046875 -1.796875 C 2.054688 -1.304688 2.332031 -1.0625 2.875 -1.0625 Z M 2.875 -1.0625 "/></g></g></g><g fill="#f5f5f5" fill-opacity="1"><g transform="translate(264.199175, 239.230675)"><g><path d="M 0.59375 0 L 0.59375 -10.453125 L 2.671875 -10.453125 C 3.441406 -10.453125 4.003906 -10.285156 4.359375 -9.953125 C 4.710938 -9.617188 4.898438 -9.078125 4.921875 -8.328125 C 4.941406 -7.847656 4.953125 -7.425781 4.953125 -7.0625 C 4.953125 -6.695312 4.941406 -6.300781 4.921875 -5.875 C 4.890625 -4.90625 4.566406 -4.28125 3.953125 -4 L 5.09375 0 L 3.59375 0 L 2.625 -3.765625 L 2.03125 -3.765625 L 2.03125 0 Z M 2.03125 -5.015625 L 2.65625 -5.015625 C 3.195312 -5.015625 3.484375 -5.273438 3.515625 -5.796875 C 3.554688 -6.671875 3.554688 -7.539062 3.515625 -8.40625 C 3.484375 -8.9375 3.203125 -9.203125 2.671875 -9.203125 L 2.03125 -9.203125 Z M 2.03125 -5.015625 "/></g></g></g><g fill="#f5f5f5" fill-opacity="1"><g transform="translate(271.84046, 239.230675)"><g/></g></g><g fill="#f5f5f5" fill-opacity="1"><g transform="translate(276.86962, 239.230675)"><g><path d="M 1.078125 0 L 1.078125 -9.109375 L 0.515625 -9.109375 L 0.46875 -9.625 L 1.359375 -10.453125 L 2.484375 -10.453125 L 2.484375 0 Z M 1.078125 0 "/></g></g></g><g fill="#f5f5f5" fill-opacity="1"><g transform="translate(282.19917, 239.230675)"><g><path d="M 2.859375 0.109375 C 2.148438 0.109375 1.601562 -0.0703125 1.21875 -0.4375 C 0.84375 -0.8125 0.644531 -1.347656 0.625 -2.046875 C 0.601562 -3.066406 0.59375 -4.125 0.59375 -5.21875 C 0.59375 -6.320312 0.601562 -7.382812 0.625 -8.40625 C 0.644531 -9.09375 0.84375 -9.617188 1.21875 -9.984375 C 1.601562 -10.359375 2.148438 -10.546875 2.859375 -10.546875 C 3.566406 -10.546875 4.109375 -10.359375 4.484375 -9.984375 C 4.867188 -9.617188 5.070312 -9.09375 5.09375 -8.40625 C 5.125 -7.382812 5.140625 -6.320312 5.140625 -5.21875 C 5.140625 -4.125 5.125 -3.066406 5.09375 -2.046875 C 5.070312 -1.347656 4.867188 -0.8125 4.484375 -0.4375 C 4.109375 -0.0703125 3.566406 0.109375 2.859375 0.109375 Z M 2.859375 -1.0625 C 3.378906 -1.0625 3.65625 -1.304688 3.6875 -1.796875 C 3.71875 -2.984375 3.734375 -4.164062 3.734375 -5.34375 C 3.734375 -6.53125 3.71875 -7.632812 3.6875 -8.65625 C 3.664062 -9.144531 3.390625 -9.390625 2.859375 -9.390625 C 2.328125 -9.390625 2.050781 -9.144531 2.03125 -8.65625 C 2.007812 -7.488281 2 -6.3125 2 -5.125 C 2 -3.945312 2.007812 -2.835938 2.03125 -1.796875 C 2.050781 -1.304688 2.328125 -1.0625 2.859375 -1.0625 Z M 2.859375 -1.0625 "/></g></g></g><g fill="#f5f5f5" fill-opacity="1"><g transform="translate(290.180026, 239.230675)"><g/></g></g><g fill="#f5f5f5" fill-opacity="1"><g transform="translate(295.209186, 239.230675)"><g><path d="M 2.875 0.109375 C 2.09375 0.109375 1.535156 -0.0546875 1.203125 -0.390625 C 0.867188 -0.734375 0.6875 -1.289062 0.65625 -2.0625 C 0.644531 -2.363281 0.640625 -2.660156 0.640625 -2.953125 C 0.648438 -3.242188 0.664062 -3.546875 0.6875 -3.859375 L 2.03125 -3.859375 C 2.007812 -3.492188 1.992188 -3.132812 1.984375 -2.78125 C 1.984375 -2.4375 2 -2.113281 2.03125 -1.8125 C 2.039062 -1.550781 2.113281 -1.359375 2.25 -1.234375 C 2.382812 -1.117188 2.59375 -1.0625 2.875 -1.0625 C 3.144531 -1.0625 3.34375 -1.117188 3.46875 -1.234375 C 3.59375 -1.359375 3.664062 -1.550781 3.6875 -1.8125 C 3.707031 -2.113281 3.710938 -2.382812 3.703125 -2.625 C 3.703125 -2.863281 3.695312 -3.144531 3.6875 -3.46875 C 3.664062 -3.71875 3.609375 -3.929688 3.515625 -4.109375 C 3.429688 -4.296875 3.28125 -4.421875 3.0625 -4.484375 L 2.1875 -4.703125 C 1.59375 -4.847656 1.1875 -5.101562 0.96875 -5.46875 C 0.75 -5.832031 0.628906 -6.332031 0.609375 -6.96875 C 0.609375 -7.195312 0.609375 -7.429688 0.609375 -7.671875 C 0.609375 -7.921875 0.613281 -8.164062 0.625 -8.40625 C 0.65625 -9.175781 0.835938 -9.722656 1.171875 -10.046875 C 1.503906 -10.378906 2.070312 -10.546875 2.875 -10.546875 C 3.625 -10.546875 4.164062 -10.378906 4.5 -10.046875 C 4.84375 -9.722656 5.03125 -9.175781 5.0625 -8.40625 C 5.0625 -8.1875 5.0625 -7.921875 5.0625 -7.609375 C 5.0625 -7.296875 5.054688 -6.984375 5.046875 -6.671875 L 3.6875 -6.671875 C 3.695312 -7.003906 3.703125 -7.332031 3.703125 -7.65625 C 3.703125 -7.988281 3.695312 -8.316406 3.6875 -8.640625 C 3.664062 -9.140625 3.390625 -9.390625 2.859375 -9.390625 C 2.585938 -9.390625 2.382812 -9.328125 2.25 -9.203125 C 2.125 -9.085938 2.050781 -8.898438 2.03125 -8.640625 C 2.007812 -8.367188 2 -8.085938 2 -7.796875 C 2.007812 -7.515625 2.019531 -7.238281 2.03125 -6.96875 C 2.050781 -6.675781 2.109375 -6.445312 2.203125 -6.28125 C 2.296875 -6.113281 2.460938 -6 2.703125 -5.9375 L 3.484375 -5.765625 C 4.109375 -5.609375 4.523438 -5.34375 4.734375 -4.96875 C 4.953125 -4.59375 5.078125 -4.09375 5.109375 -3.46875 C 5.117188 -3.1875 5.117188 -2.941406 5.109375 -2.734375 C 5.109375 -2.535156 5.101562 -2.3125 5.09375 -2.0625 C 5.070312 -1.289062 4.890625 -0.734375 4.546875 -0.390625 C 4.203125 -0.0546875 3.644531 0.109375 2.875 0.109375 Z M 2.875 0.109375 "/></g></g></g><g fill="#f5f5f5" fill-opacity="1"><g transform="translate(303.163925, 239.230675)"><g><path d="M 0.59375 0 L 0.59375 -10.453125 L 4.34375 -10.453125 L 4.34375 -9.203125 L 2.03125 -9.203125 L 2.03125 -5.921875 L 4.203125 -5.921875 L 4.203125 -4.65625 L 2.03125 -4.65625 L 2.03125 -1.25 L 4.34375 -1.25 L 4.34375 0 Z M 0.59375 0 "/></g></g></g><g fill="#f5f5f5" fill-opacity="1"><g transform="translate(310.086885, 239.230675)"><g><path d="M 2.84375 0.125 C 2.050781 0.125 1.488281 -0.0390625 1.15625 -0.375 C 0.820312 -0.71875 0.644531 -1.273438 0.625 -2.046875 C 0.613281 -2.703125 0.601562 -3.394531 0.59375 -4.125 C 0.59375 -4.851562 0.59375 -5.582031 0.59375 -6.3125 C 0.601562 -7.050781 0.613281 -7.75 0.625 -8.40625 C 0.632812 -9.082031 0.8125 -9.609375 1.15625 -9.984375 C 1.507812 -10.359375 2.070312 -10.546875 2.84375 -10.546875 C 3.613281 -10.546875 4.171875 -10.378906 4.515625 -10.046875 C 4.859375 -9.710938 5.039062 -9.164062 5.0625 -8.40625 C 5.0625 -8.164062 5.0625 -7.875 5.0625 -7.53125 C 5.0625 -7.195312 5.0625 -6.910156 5.0625 -6.671875 L 3.640625 -6.671875 C 3.640625 -6.960938 3.640625 -7.289062 3.640625 -7.65625 C 3.648438 -8.019531 3.648438 -8.347656 3.640625 -8.640625 C 3.628906 -9.140625 3.363281 -9.390625 2.84375 -9.390625 C 2.320312 -9.390625 2.050781 -9.140625 2.03125 -8.640625 C 2.007812 -7.535156 2 -6.394531 2 -5.21875 C 2 -4.050781 2.007812 -2.910156 2.03125 -1.796875 C 2.050781 -1.296875 2.320312 -1.046875 2.84375 -1.046875 C 3.40625 -1.046875 3.691406 -1.296875 3.703125 -1.796875 C 3.703125 -2.109375 3.703125 -2.453125 3.703125 -2.828125 C 3.703125 -3.203125 3.703125 -3.539062 3.703125 -3.84375 L 5.109375 -3.84375 C 5.117188 -3.550781 5.125 -3.253906 5.125 -2.953125 C 5.125 -2.648438 5.117188 -2.347656 5.109375 -2.046875 C 5.085938 -1.273438 4.898438 -0.71875 4.546875 -0.375 C 4.191406 -0.0390625 3.625 0.125 2.84375 0.125 Z M 2.84375 0.125 "/></g></g></g><g fill="#f5f5f5" fill-opacity="1"><g transform="translate(317.832662, 239.230675)"><g><path d="M 2.875 0.109375 C 2.09375 0.109375 1.53125 -0.0546875 1.1875 -0.390625 C 0.84375 -0.722656 0.660156 -1.273438 0.640625 -2.046875 C 0.597656 -4.160156 0.597656 -6.28125 0.640625 -8.40625 C 0.660156 -9.175781 0.84375 -9.722656 1.1875 -10.046875 C 1.53125 -10.378906 2.09375 -10.546875 2.875 -10.546875 C 3.65625 -10.546875 4.210938 -10.378906 4.546875 -10.046875 C 4.890625 -9.722656 5.078125 -9.175781 5.109375 -8.40625 C 5.160156 -6.28125 5.160156 -4.160156 5.109375 -2.046875 C 5.078125 -1.273438 4.890625 -0.722656 4.546875 -0.390625 C 4.210938 -0.0546875 3.65625 0.109375 2.875 0.109375 Z M 2.875 -1.0625 C 3.40625 -1.0625 3.679688 -1.304688 3.703125 -1.796875 C 3.722656 -2.523438 3.734375 -3.28125 3.734375 -4.0625 C 3.742188 -4.84375 3.742188 -5.625 3.734375 -6.40625 C 3.722656 -7.195312 3.710938 -7.945312 3.703125 -8.65625 C 3.679688 -9.144531 3.40625 -9.390625 2.875 -9.390625 C 2.332031 -9.390625 2.054688 -9.144531 2.046875 -8.65625 C 2.023438 -7.945312 2.007812 -7.195312 2 -6.40625 C 1.988281 -5.625 1.988281 -4.84375 2 -4.0625 C 2.007812 -3.28125 2.023438 -2.523438 2.046875 -1.796875 C 2.054688 -1.304688 2.332031 -1.0625 2.875 -1.0625 Z M 2.875 -1.0625 "/></g></g></g><g fill="#f5f5f5" fill-opacity="1"><g transform="translate(325.81353, 239.230675)"><g><path d="M 0.59375 0 L 0.59375 -10.453125 L 2.796875 -10.453125 L 3.46875 -7.125 L 4.328125 -1.25 L 4.625 -1.25 L 4.375 -6.375 L 4.265625 -10.453125 L 5.640625 -10.453125 L 5.640625 0 L 3.359375 0 L 2.65625 -3.578125 L 1.953125 -9.203125 L 1.625 -9.203125 L 1.859375 -3.984375 L 1.96875 0 Z M 0.59375 0 "/></g></g></g><g fill="#f5f5f5" fill-opacity="1"><g transform="translate(334.290686, 239.230675)"><g><path d="M 0.59375 0 L 0.59375 -10.453125 L 2.765625 -10.453125 C 3.546875 -10.453125 4.113281 -10.28125 4.46875 -9.9375 C 4.820312 -9.59375 5.007812 -9.03125 5.03125 -8.25 C 5.050781 -7.53125 5.0625 -6.84375 5.0625 -6.1875 C 5.0625 -5.539062 5.0625 -4.894531 5.0625 -4.25 C 5.0625 -3.613281 5.050781 -2.9375 5.03125 -2.21875 C 5.007812 -1.425781 4.820312 -0.859375 4.46875 -0.515625 C 4.113281 -0.171875 3.539062 0 2.75 0 Z M 2.03125 -1.25 L 2.75 -1.25 C 3.320312 -1.25 3.613281 -1.515625 3.625 -2.046875 C 3.664062 -4.160156 3.664062 -6.28125 3.625 -8.40625 C 3.613281 -8.9375 3.328125 -9.203125 2.765625 -9.203125 L 2.03125 -9.203125 Z M 2.03125 -1.25 "/></g></g></g><g fill="#f5f5f5" fill-opacity="1"><g transform="translate(342.19319, 239.230675)"><g><path d="M 2.875 0.109375 C 2.09375 0.109375 1.535156 -0.0546875 1.203125 -0.390625 C 0.867188 -0.734375 0.6875 -1.289062 0.65625 -2.0625 C 0.644531 -2.363281 0.640625 -2.660156 0.640625 -2.953125 C 0.648438 -3.242188 0.664062 -3.546875 0.6875 -3.859375 L 2.03125 -3.859375 C 2.007812 -3.492188 1.992188 -3.132812 1.984375 -2.78125 C 1.984375 -2.4375 2 -2.113281 2.03125 -1.8125 C 2.039062 -1.550781 2.113281 -1.359375 2.25 -1.234375 C 2.382812 -1.117188 2.59375 -1.0625 2.875 -1.0625 C 3.144531 -1.0625 3.34375 -1.117188 3.46875 -1.234375 C 3.59375 -1.359375 3.664062 -1.550781 3.6875 -1.8125 C 3.707031 -2.113281 3.710938 -2.382812 3.703125 -2.625 C 3.703125 -2.863281 3.695312 -3.144531 3.6875 -3.46875 C 3.664062 -3.71875 3.609375 -3.929688 3.515625 -4.109375 C 3.429688 -4.296875 3.28125 -4.421875 3.0625 -4.484375 L 2.1875 -4.703125 C 1.59375 -4.847656 1.1875 -5.101562 0.96875 -5.46875 C 0.75 -5.832031 0.628906 -6.332031 0.609375 -6.96875 C 0.609375 -7.195312 0.609375 -7.429688 0.609375 -7.671875 C 0.609375 -7.921875 0.613281 -8.164062 0.625 -8.40625 C 0.65625 -9.175781 0.835938 -9.722656 1.171875 -10.046875 C 1.503906 -10.378906 2.070312 -10.546875 2.875 -10.546875 C 3.625 -10.546875 4.164062 -10.378906 4.5 -10.046875 C 4.84375 -9.722656 5.03125 -9.175781 5.0625 -8.40625 C 5.0625 -8.1875 5.0625 -7.921875 5.0625 -7.609375 C 5.0625 -7.296875 5.054688 -6.984375 5.046875 -6.671875 L 3.6875 -6.671875 C 3.695312 -7.003906 3.703125 -7.332031 3.703125 -7.65625 C 3.703125 -7.988281 3.695312 -8.316406 3.6875 -8.640625 C 3.664062 -9.140625 3.390625 -9.390625 2.859375 -9.390625 C 2.585938 -9.390625 2.382812 -9.328125 2.25 -9.203125 C 2.125 -9.085938 2.050781 -8.898438 2.03125 -8.640625 C 2.007812 -8.367188 2 -8.085938 2 -7.796875 C 2.007812 -7.515625 2.019531 -7.238281 2.03125 -6.96875 C 2.050781 -6.675781 2.109375 -6.445312 2.203125 -6.28125 C 2.296875 -6.113281 2.460938 -6 2.703125 -5.9375 L 3.484375 -5.765625 C 4.109375 -5.609375 4.523438 -5.34375 4.734375 -4.96875 C 4.953125 -4.59375 5.078125 -4.09375 5.109375 -3.46875 C 5.117188 -3.1875 5.117188 -2.941406 5.109375 -2.734375 C 5.109375 -2.535156 5.101562 -2.3125 5.09375 -2.0625 C 5.070312 -1.289062 4.890625 -0.734375 4.546875 -0.390625 C 4.203125 -0.0546875 3.644531 0.109375 2.875 0.109375 Z M 2.875 0.109375 "/></g></g></g><g fill="#ffffff" fill-opacity="1"><g transform="translate(277.439869, 222.782508)"><g><path d="M 12.625 0 L 12.625 -34.34375 L 4.203125 -26.4375 L -0.875 -31.828125 L 11.796875 -43.953125 L 20.71875 -43.953125 L 20.71875 0 Z M 12.625 0 "/></g></g></g><g fill="#ffffff" fill-opacity="1"><g transform="translate(302.365498, 222.782508)"><g><path d="M 22.859375 0.5625 C 19.460938 0.5625 16.40625 -0.03125 13.6875 -1.21875 C 10.96875 -2.414062 8.644531 -4.039062 6.71875 -6.09375 C 4.789062 -8.144531 3.3125 -10.519531 2.28125 -13.21875 C 1.257812 -15.914062 0.75 -18.769531 0.75 -21.78125 C 0.75 -25.96875 1.617188 -29.773438 3.359375 -33.203125 C 5.097656 -36.640625 7.617188 -39.375 10.921875 -41.40625 C 14.234375 -43.4375 18.210938 -44.453125 22.859375 -44.453125 C 26.328125 -44.453125 29.421875 -43.851562 32.140625 -42.65625 C 34.859375 -41.46875 37.171875 -39.828125 39.078125 -37.734375 C 40.984375 -35.640625 42.425781 -33.234375 43.40625 -30.515625 C 44.394531 -27.796875 44.890625 -24.882812 44.890625 -21.78125 C 44.890625 -18.769531 44.375 -15.914062 43.34375 -13.21875 C 42.320312 -10.519531 40.859375 -8.144531 38.953125 -6.09375 C 37.046875 -4.039062 34.734375 -2.414062 32.015625 -1.21875 C 29.296875 -0.03125 26.242188 0.5625 22.859375 0.5625 Z M 22.859375 -6.84375 C 25.660156 -6.84375 28.050781 -7.53125 30.03125 -8.90625 C 32.019531 -10.289062 33.554688 -12.125 34.640625 -14.40625 C 35.734375 -16.6875 36.28125 -19.144531 36.28125 -21.78125 C 36.28125 -24.539062 35.734375 -27.082031 34.640625 -29.40625 C 33.554688 -31.726562 32.019531 -33.601562 30.03125 -35.03125 C 28.050781 -36.457031 25.660156 -37.171875 22.859375 -37.171875 C 20.046875 -37.171875 17.632812 -36.457031 15.625 -35.03125 C 13.625 -33.601562 12.085938 -31.726562 11.015625 -29.40625 C 9.953125 -27.082031 9.421875 -24.539062 9.421875 -21.78125 C 9.421875 -19.144531 9.953125 -16.6875 11.015625 -14.40625 C 12.085938 -12.125 13.625 -10.289062 15.625 -8.90625 C 17.632812 -7.53125 20.046875 -6.84375 22.859375 -6.84375 Z M 22.859375 -6.84375 "/></g></g></g></svg>