<svg xmlns="http://www.w3.org/2000/svg" xmlns:xlink="http://www.w3.org/1999/xlink" width="500" zoomAndPan="magnify" viewBox="0 0 375 374.999991" height="500" preserveAspectRatio="xMidYMid meet" version="1.0"><defs><g/><clipPath id="c9104b3f6e"><path d="M 77 279 L 283 279 L 283 323.519531 L 77 323.519531 Z M 77 279 " clip-rule="nonzero"/></clipPath><clipPath id="51a6780a35"><rect x="0" width="206" y="0" height="45"/></clipPath><clipPath id="0314a625a3"><rect x="0" width="67" y="0" height="101"/></clipPath><clipPath id="14d574101c"><path d="M 251 202 L 360.441406 202 L 360.441406 295 L 251 295 Z M 251 202 " clip-rule="nonzero"/></clipPath><clipPath id="509aedf7a4"><rect x="0" width="110" y="0" height="93"/></clipPath><clipPath id="481180cf84"><path d="M 21 0.960938 L 277 0.960938 L 277 211 L 21 211 Z M 21 0.960938 " clip-rule="nonzero"/></clipPath><clipPath id="709d9f775b"><rect x="0" width="361" y="0" height="324"/></clipPath></defs><g transform="matrix(1, 0, 0, 1, 7, 30)"><g clip-path="url(#709d9f775b)"><g clip-path="url(#c9104b3f6e)"><g transform="matrix(1, 0, 0, 1, 77, 279)"><g clip-path="url(#51a6780a35)"><g fill="#ffffff" fill-opacity="1"><g transform="translate(1.675689, 36.232967)"><g><path d="M 6.796875 0.25 C 5.109375 0.25 3.898438 -0.117188 3.171875 -0.859375 C 2.441406 -1.597656 2.054688 -2.832031 2.015625 -4.5625 C 1.890625 -11.257812 1.890625 -17.914062 2.015625 -24.53125 C 2.054688 -26.3125 2.441406 -27.578125 3.171875 -28.328125 C 3.898438 -29.085938 5.109375 -29.46875 6.796875 -29.46875 C 8.398438 -29.46875 9.566406 -29.09375 10.296875 -28.34375 C 11.023438 -27.601562 11.425781 -26.382812 11.5 -24.6875 C 11.570312 -22.8125 11.570312 -20.945312 11.5 -19.09375 L 9.09375 -19.09375 C 9.164062 -21.070312 9.164062 -23.054688 9.09375 -25.046875 C 9.019531 -26.609375 8.253906 -27.390625 6.796875 -27.390625 C 5.285156 -27.390625 4.503906 -26.609375 4.453125 -25.046875 C 4.285156 -18.085938 4.285156 -11.140625 4.453125 -4.203125 C 4.453125 -3.367188 4.640625 -2.765625 5.015625 -2.390625 C 5.398438 -2.015625 5.992188 -1.828125 6.796875 -1.828125 C 8.398438 -1.828125 9.226562 -2.617188 9.28125 -4.203125 C 9.320312 -6.171875 9.320312 -8.15625 9.28125 -10.15625 L 6.828125 -10.15625 L 6.828125 -12.3125 L 11.65625 -12.3125 C 11.675781 -11.351562 11.6875 -10.25 11.6875 -9 C 11.6875 -7.75 11.675781 -6.269531 11.65625 -4.5625 C 11.570312 -2.832031 11.160156 -1.597656 10.421875 -0.859375 C 9.679688 -0.117188 8.472656 0.25 6.796875 0.25 Z M 6.796875 0.25 "/></g></g></g><g fill="#ffffff" fill-opacity="1"><g transform="translate(13.244633, 36.232967)"><g><path d="M 1.9375 0 L 1.9375 -29.21875 L 10.15625 -29.21875 L 10.15625 -27.015625 L 4.34375 -27.015625 L 4.34375 -15.78125 L 9.78125 -15.78125 L 9.78125 -13.625 L 4.34375 -13.625 L 4.34375 -2.1875 L 10.15625 -2.1875 L 10.15625 0 Z M 1.9375 0 "/></g></g></g><g fill="#ffffff" fill-opacity="1"><g transform="translate(23.280668, 36.232967)"><g><path d="M 4.671875 0 L 4.671875 -27.015625 L 0.953125 -27.015625 L 0.953125 -29.21875 L 10.8125 -29.21875 L 10.8125 -27.015625 L 7.125 -27.015625 L 7.125 0 Z M 4.671875 0 "/></g></g></g><g fill="#ffffff" fill-opacity="1"><g transform="translate(33.754682, 36.232967)"><g/></g></g><g fill="#ffffff" fill-opacity="1"><g transform="translate(39.994946, 36.232967)"><g><path d="M 1.9375 0 L 1.9375 -29.21875 L 10.15625 -29.21875 L 10.15625 -27.015625 L 4.34375 -27.015625 L 4.34375 -15.78125 L 9.78125 -15.78125 L 9.78125 -13.625 L 4.34375 -13.625 L 4.34375 0 Z M 1.9375 0 "/></g></g></g><g fill="#ffffff" fill-opacity="1"><g transform="translate(50.030981, 36.232967)"><g><path d="M 1.9375 0 L 1.9375 -29.21875 L 4.34375 -29.21875 L 4.34375 0 Z M 1.9375 0 "/></g></g></g><g fill="#ffffff" fill-opacity="1"><g transform="translate(54.993819, 36.232967)"><g><path d="M 4.671875 0 L 4.671875 -27.015625 L 0.953125 -27.015625 L 0.953125 -29.21875 L 10.8125 -29.21875 L 10.8125 -27.015625 L 7.125 -27.015625 L 7.125 0 Z M 4.671875 0 "/></g></g></g><g fill="#ffffff" fill-opacity="1"><g transform="translate(65.467833, 36.232967)"><g/></g></g><g fill="#ffffff" fill-opacity="1"><g transform="translate(71.708097, 36.232967)"><g><path d="M 3.171875 0 L 1.203125 -29.21875 L 3.65625 -29.21875 L 4.265625 -18.21875 L 5.078125 -2.1875 L 5.734375 -2.1875 L 6.6875 -18.21875 L 7.890625 -29.03125 L 11.6875 -29.03125 L 12.890625 -18.21875 L 13.875 -2.1875 L 14.5 -2.1875 L 15.34375 -18.21875 L 16 -29.21875 L 18.40625 -29.21875 L 16.390625 0 L 12.046875 0 L 11.140625 -9.5625 L 10.109375 -26.90625 L 9.453125 -26.90625 L 8.4375 -9.5625 L 7.515625 0 Z M 3.171875 0 "/></g></g></g><g fill="#ffffff" fill-opacity="1"><g transform="translate(89.883163, 36.232967)"><g><path d="M 1.9375 0 L 1.9375 -29.21875 L 4.34375 -29.21875 L 4.34375 0 Z M 1.9375 0 "/></g></g></g><g fill="#ffffff" fill-opacity="1"><g transform="translate(94.846, 36.232967)"><g><path d="M 4.671875 0 L 4.671875 -27.015625 L 0.953125 -27.015625 L 0.953125 -29.21875 L 10.8125 -29.21875 L 10.8125 -27.015625 L 7.125 -27.015625 L 7.125 0 Z M 4.671875 0 "/></g></g></g><g fill="#ffffff" fill-opacity="1"><g transform="translate(105.320014, 36.232967)"><g><path d="M 1.9375 0 L 1.9375 -29.21875 L 4.34375 -29.21875 L 4.34375 -15.78125 L 9.015625 -15.78125 L 9.015625 -29.21875 L 11.421875 -29.21875 L 11.421875 0 L 9.015625 0 L 9.015625 -13.625 L 4.34375 -13.625 L 4.34375 0 Z M 1.9375 0 "/></g></g></g><g fill="#ffffff" fill-opacity="1"><g transform="translate(117.36343, 36.232967)"><g/></g></g><g fill="#ffffff" fill-opacity="1"><g transform="translate(123.603694, 36.232967)"><g><path d="M 1.9375 0 L 1.9375 -29.21875 L 6.28125 -29.21875 L 7.84375 -19.96875 L 10.59375 -2.1875 L 11.359375 -2.1875 L 10.984375 -18.953125 L 10.8125 -29.21875 L 13.1875 -29.21875 L 13.1875 0 L 8.734375 0 L 7.015625 -10.484375 L 4.5625 -27.015625 L 3.796875 -27.015625 L 4.125 -11.03125 L 4.3125 0 Z M 1.9375 0 "/></g></g></g><g fill="#ffffff" fill-opacity="1"><g transform="translate(137.399007, 36.232967)"><g><path d="M 6.828125 0.25 C 5.148438 0.25 3.9375 -0.113281 3.1875 -0.84375 C 2.445312 -1.570312 2.066406 -2.785156 2.046875 -4.484375 C 1.972656 -7.972656 1.9375 -11.34375 1.9375 -14.59375 C 1.9375 -17.84375 1.972656 -21.21875 2.046875 -24.71875 C 2.066406 -26.425781 2.445312 -27.644531 3.1875 -28.375 C 3.9375 -29.101562 5.148438 -29.46875 6.828125 -29.46875 C 8.535156 -29.46875 9.753906 -29.101562 10.484375 -28.375 C 11.210938 -27.644531 11.601562 -26.425781 11.65625 -24.71875 C 11.695312 -21.21875 11.71875 -17.84375 11.71875 -14.59375 C 11.71875 -11.34375 11.695312 -7.972656 11.65625 -4.484375 C 11.601562 -2.785156 11.210938 -1.570312 10.484375 -0.84375 C 9.753906 -0.113281 8.535156 0.25 6.828125 0.25 Z M 6.828125 -1.828125 C 7.679688 -1.828125 8.289062 -1.992188 8.65625 -2.328125 C 9.019531 -2.671875 9.203125 -3.269531 9.203125 -4.125 C 9.328125 -7.707031 9.378906 -11.222656 9.359375 -14.671875 C 9.347656 -18.128906 9.296875 -21.601562 9.203125 -25.09375 C 9.203125 -25.9375 9.019531 -26.53125 8.65625 -26.875 C 8.289062 -27.21875 7.679688 -27.390625 6.828125 -27.390625 C 6.003906 -27.390625 5.40625 -27.21875 5.03125 -26.875 C 4.664062 -26.53125 4.472656 -25.9375 4.453125 -25.09375 C 4.359375 -21.601562 4.3125 -18.128906 4.3125 -14.671875 C 4.3125 -11.222656 4.359375 -7.707031 4.453125 -4.125 C 4.472656 -3.269531 4.664062 -2.671875 5.03125 -2.328125 C 5.40625 -1.992188 6.003906 -1.828125 6.828125 -1.828125 Z M 6.828125 -1.828125 "/></g></g></g><g fill="#ffffff" fill-opacity="1"><g transform="translate(149.734414, 36.232967)"><g/></g></g><g fill="#ffffff" fill-opacity="1"><g transform="translate(155.974678, 36.232967)"><g><path d="M 6.828125 0.25 C 5.148438 0.25 3.945312 -0.117188 3.21875 -0.859375 C 2.488281 -1.597656 2.085938 -2.832031 2.015625 -4.5625 C 1.984375 -5.6875 1.96875 -6.679688 1.96875 -7.546875 C 1.96875 -8.410156 2.003906 -9.410156 2.078125 -10.546875 L 4.375 -10.546875 C 4.332031 -9.484375 4.3125 -8.414062 4.3125 -7.34375 C 4.3125 -6.269531 4.332031 -5.222656 4.375 -4.203125 C 4.425781 -3.367188 4.632812 -2.765625 5 -2.390625 C 5.363281 -2.015625 5.972656 -1.828125 6.828125 -1.828125 C 7.628906 -1.828125 8.207031 -2.015625 8.5625 -2.390625 C 8.914062 -2.765625 9.117188 -3.367188 9.171875 -4.203125 C 9.210938 -4.878906 9.234375 -5.484375 9.234375 -6.015625 C 9.234375 -6.554688 9.226562 -7.113281 9.21875 -7.6875 C 9.207031 -8.257812 9.191406 -8.921875 9.171875 -9.671875 C 9.140625 -10.597656 9.007812 -11.363281 8.78125 -11.96875 C 8.550781 -12.582031 8.09375 -12.972656 7.40625 -13.140625 L 5.484375 -13.65625 C 4.066406 -14 3.140625 -14.617188 2.703125 -15.515625 C 2.265625 -16.421875 2.019531 -17.710938 1.96875 -19.390625 C 1.945312 -20.191406 1.941406 -21.054688 1.953125 -21.984375 C 1.960938 -22.910156 1.984375 -23.8125 2.015625 -24.6875 C 2.035156 -26.382812 2.410156 -27.601562 3.140625 -28.34375 C 3.867188 -29.09375 5.097656 -29.46875 6.828125 -29.46875 C 8.429688 -29.46875 9.59375 -29.09375 10.3125 -28.34375 C 11.03125 -27.601562 11.425781 -26.382812 11.5 -24.6875 C 11.5 -24 11.5 -23.160156 11.5 -22.171875 C 11.5 -21.191406 11.488281 -20.164062 11.46875 -19.09375 L 9.125 -19.09375 C 9.15625 -20.070312 9.171875 -21.054688 9.171875 -22.046875 C 9.171875 -23.046875 9.15625 -24.046875 9.125 -25.046875 C 9.082031 -26.609375 8.304688 -27.390625 6.796875 -27.390625 C 5.960938 -27.390625 5.367188 -27.195312 5.015625 -26.8125 C 4.660156 -26.4375 4.460938 -25.847656 4.421875 -25.046875 C 4.367188 -24.097656 4.34375 -23.15625 4.34375 -22.21875 C 4.34375 -21.28125 4.367188 -20.335938 4.421875 -19.390625 C 4.441406 -18.296875 4.566406 -17.476562 4.796875 -16.9375 C 5.035156 -16.40625 5.519531 -16.039062 6.25 -15.84375 L 8.03125 -15.40625 C 9.46875 -15.0625 10.410156 -14.425781 10.859375 -13.5 C 11.304688 -12.582031 11.554688 -11.304688 11.609375 -9.671875 C 11.640625 -8.921875 11.65625 -8.289062 11.65625 -7.78125 C 11.65625 -7.269531 11.644531 -6.769531 11.625 -6.28125 C 11.613281 -5.789062 11.609375 -5.21875 11.609375 -4.5625 C 11.535156 -2.832031 11.132812 -1.597656 10.40625 -0.859375 C 9.675781 -0.117188 8.484375 0.25 6.828125 0.25 Z M 6.828125 0.25 "/></g></g></g><g fill="#ffffff" fill-opacity="1"><g transform="translate(168.200589, 36.232967)"><g><path d="M 1.90625 0 L 4.09375 -7.953125 L 1.09375 -7.953125 L 1.640625 -10 L 4.59375 -10 L 6.96875 -18.140625 L 3.90625 -18.140625 L 4.453125 -20.234375 L 7.453125 -20.234375 L 10 -29.21875 L 12.375 -29.21875 L 9.828125 -20.234375 L 13.6875 -20.234375 L 16.25 -29.21875 L 18.625 -29.21875 L 16.0625 -20.234375 L 19.3125 -20.234375 L 18.8125 -18.140625 L 15.59375 -18.140625 L 13.21875 -10 L 16.390625 -10 L 15.84375 -7.953125 L 12.703125 -7.953125 L 10.515625 0 L 8.140625 0 L 10.328125 -7.953125 L 6.46875 -7.953125 L 4.265625 0 Z M 6.96875 -10 L 10.8125 -10 L 13.21875 -18.140625 L 9.34375 -18.140625 Z M 6.96875 -10 "/></g></g></g><g fill="#ffffff" fill-opacity="1"><g transform="translate(187.361091, 36.232967)"><g><path d="M 2.890625 -5.765625 L 2.484375 -21.734375 L 2.484375 -29.21875 L 5.046875 -29.21875 L 5.046875 -21.734375 L 4.640625 -5.765625 Z M 1.6875 0 L 1.6875 -3.25 L 5.8125 -3.25 L 5.8125 0 Z M 1.6875 0 "/></g></g></g><g fill="#ffffff" fill-opacity="1"><g transform="translate(193.528354, 36.232967)"><g><path d="M 4.671875 0 L 4.671875 -27.015625 L 0.953125 -27.015625 L 0.953125 -29.21875 L 10.8125 -29.21875 L 10.8125 -27.015625 L 7.125 -27.015625 L 7.125 0 Z M 4.671875 0 "/></g></g></g></g></g></g><g fill="#ffffff" fill-opacity="1"><g transform="translate(0.801888, 274.910685)"><g><path d="M 33.796875 1.015625 C 27.535156 1.015625 22.007812 -0.347656 17.21875 -3.078125 C 12.425781 -5.816406 8.679688 -9.71875 5.984375 -14.78125 C 3.285156 -19.84375 1.9375 -25.90625 1.9375 -32.96875 L 13.90625 -32.96875 C 13.90625 -28.726562 14.472656 -25.132812 15.609375 -22.1875 C 16.742188 -19.25 18.273438 -16.875 20.203125 -15.0625 C 22.140625 -13.25 24.289062 -11.925781 26.65625 -11.09375 C 29.019531 -10.269531 31.398438 -9.859375 33.796875 -9.859375 C 37.171875 -9.859375 40.253906 -10.65625 43.046875 -12.25 C 45.847656 -13.84375 48.09375 -16.21875 49.78125 -19.375 C 51.46875 -22.539062 52.3125 -26.488281 52.3125 -31.21875 L 52.3125 -53.875 L 24.5 -53.875 L 24.5 -64.46875 L 65.015625 -64.46875 L 65.015625 -31.21875 C 65.015625 -25.019531 63.753906 -19.492188 61.234375 -14.640625 C 58.722656 -9.796875 55.132812 -5.972656 50.46875 -3.171875 C 45.800781 -0.378906 40.242188 1.015625 33.796875 1.015625 Z M 33.796875 1.015625 "/></g></g></g><g fill="#ffffff" fill-opacity="1"><g transform="translate(72.722629, 274.910685)"><g><path d="M 4.515625 0 L 4.515625 -64.46875 L 56.078125 -64.46875 L 56.078125 -53.5 L 16.859375 -53.5 L 16.859375 -37.484375 L 54.515625 -37.484375 L 54.515625 -26.890625 L 16.859375 -26.890625 L 16.859375 -10.953125 L 56.078125 -10.953125 L 56.078125 0 Z M 4.515625 0 "/></g></g></g><g fill="#ffffff" fill-opacity="1"><g transform="translate(133.040282, 274.910685)"><g><path d="M 3.6875 0 L 3.6875 -64.65625 L 33.890625 -64.65625 C 40.273438 -64.65625 45.890625 -63.238281 50.734375 -60.40625 C 55.585938 -57.582031 59.363281 -53.726562 62.0625 -48.84375 C 64.769531 -43.96875 66.125 -38.460938 66.125 -32.328125 C 66.125 -26.179688 64.769531 -20.664062 62.0625 -15.78125 C 59.363281 -10.90625 55.601562 -7.054688 50.78125 -4.234375 C 45.96875 -1.410156 40.335938 0 33.890625 0 Z M 16.765625 -10.859375 L 34.078125 -10.859375 C 37.941406 -10.859375 41.316406 -11.78125 44.203125 -13.625 C 47.085938 -15.46875 49.328125 -17.96875 50.921875 -21.125 C 52.523438 -24.289062 53.328125 -27.867188 53.328125 -31.859375 C 53.328125 -35.910156 52.539062 -39.578125 50.96875 -42.859375 C 49.40625 -46.148438 47.179688 -48.757812 44.296875 -50.6875 C 41.410156 -52.625 38.003906 -53.59375 34.078125 -53.59375 L 16.765625 -53.59375 Z M 16.765625 -10.859375 "/></g></g></g><g transform="matrix(1, 0, 0, 1, 194, 201)"><g clip-path="url(#0314a625a3)"><g fill="#ffffff" fill-opacity="1"><g transform="translate(0.892052, 75.51487)"><g><path d="M 60.796875 -1.5 C 60.796875 -0.96875 60.710938 -0.582031 60.546875 -0.34375 C 60.378906 -0.113281 59.992188 0 59.390625 0 L 50.046875 0 C 48.835938 0 48.132812 -0.5 47.9375 -1.5 C 47.726562 -4.988281 46.734375 -8.320312 44.953125 -11.5 C 43.179688 -14.6875 41.15625 -17.617188 38.875 -20.296875 C 36.601562 -22.972656 34.566406 -25.1875 32.765625 -26.9375 C 32.765625 -27.0625 32.695312 -27.0625 32.5625 -26.9375 C 30.75 -25.1875 28.703125 -22.972656 26.421875 -20.296875 C 24.148438 -17.617188 22.140625 -14.6875 20.390625 -11.5 C 18.648438 -8.320312 17.648438 -4.988281 17.390625 -1.5 C 17.316406 -0.5 16.675781 0 15.46875 0 L 5.921875 0 C 5.328125 0 4.941406 -0.113281 4.765625 -0.34375 C 4.597656 -0.582031 4.515625 -0.96875 4.515625 -1.5 C 4.722656 -5.125 5.644531 -8.660156 7.28125 -12.109375 C 8.925781 -15.554688 10.851562 -18.753906 13.0625 -21.703125 C 15.269531 -24.648438 17.410156 -27.175781 19.484375 -29.28125 C 21.566406 -31.394531 23.144531 -32.957031 24.21875 -33.96875 C 24.21875 -33.96875 24.21875 -33.984375 24.21875 -34.015625 C 24.21875 -34.046875 24.148438 -34.097656 24.015625 -34.171875 C 22.941406 -35.109375 21.382812 -36.546875 19.34375 -38.484375 C 17.300781 -40.429688 15.191406 -42.742188 13.015625 -45.421875 C 10.835938 -48.097656 8.925781 -51.0625 7.28125 -54.3125 C 5.644531 -57.5625 4.722656 -60.992188 4.515625 -64.609375 C 4.515625 -65.148438 4.597656 -65.535156 4.765625 -65.765625 C 4.941406 -66.003906 5.328125 -66.125 5.921875 -66.125 L 15.46875 -66.125 C 16.007812 -66.125 16.445312 -66.019531 16.78125 -65.8125 C 17.113281 -65.613281 17.316406 -65.210938 17.390625 -64.609375 C 17.648438 -61.191406 18.632812 -57.972656 20.34375 -54.953125 C 22.050781 -51.941406 24.046875 -49.25 26.328125 -46.875 C 28.609375 -44.5 30.648438 -42.503906 32.453125 -40.890625 C 32.523438 -40.890625 32.609375 -40.875 32.703125 -40.84375 C 32.804688 -40.8125 32.890625 -40.828125 32.953125 -40.890625 C 34.765625 -42.503906 36.789062 -44.5 39.03125 -46.875 C 41.28125 -49.25 43.273438 -51.941406 45.015625 -54.953125 C 46.753906 -57.972656 47.726562 -61.191406 47.9375 -64.609375 C 48.132812 -65.617188 48.835938 -66.125 50.046875 -66.125 L 59.390625 -66.125 C 59.992188 -66.125 60.378906 -66.003906 60.546875 -65.765625 C 60.710938 -65.535156 60.796875 -65.148438 60.796875 -64.609375 C 60.585938 -60.992188 59.660156 -57.5625 58.015625 -54.3125 C 56.378906 -51.0625 54.472656 -48.097656 52.296875 -45.421875 C 50.117188 -42.742188 48.007812 -40.429688 45.96875 -38.484375 C 43.925781 -36.546875 42.367188 -35.109375 41.296875 -34.171875 C 41.296875 -34.171875 41.28125 -34.132812 41.25 -34.0625 C 41.21875 -34 41.234375 -33.929688 41.296875 -33.859375 C 42.367188 -32.859375 43.925781 -31.300781 45.96875 -29.1875 C 48.007812 -27.082031 50.117188 -24.554688 52.296875 -21.609375 C 54.472656 -18.660156 56.378906 -15.476562 58.015625 -12.0625 C 59.660156 -8.644531 60.585938 -5.125 60.796875 -1.5 Z M 60.796875 -1.5 "/></g></g></g></g></g><g clip-path="url(#14d574101c)"><g transform="matrix(1, 0, 0, 1, 251, 202)"><g clip-path="url(#509aedf7a4)"><g fill="#ffffff" fill-opacity="1"><g transform="translate(2.374411, 73.37028)"><g><path d="M 18.546875 0 L 18.546875 -50.453125 L 6.1875 -38.84375 L -1.296875 -46.765625 L 17.34375 -64.578125 L 30.4375 -64.578125 L 30.4375 0 Z M 18.546875 0 "/></g></g></g><g fill="#ffffff" fill-opacity="1"><g transform="translate(38.996565, 73.37028)"><g><path d="M 33.578125 0.828125 C 28.597656 0.828125 24.109375 -0.046875 20.109375 -1.796875 C 16.109375 -3.546875 12.691406 -5.925781 9.859375 -8.9375 C 7.035156 -11.957031 4.867188 -15.453125 3.359375 -19.421875 C 1.859375 -23.390625 1.109375 -27.585938 1.109375 -32.015625 C 1.109375 -38.160156 2.382812 -43.753906 4.9375 -48.796875 C 7.488281 -53.835938 11.191406 -57.847656 16.046875 -60.828125 C 20.910156 -63.816406 26.753906 -65.3125 33.578125 -65.3125 C 38.679688 -65.3125 43.234375 -64.4375 47.234375 -62.6875 C 51.234375 -60.9375 54.628906 -58.519531 57.421875 -55.4375 C 60.222656 -52.363281 62.34375 -48.828125 63.78125 -44.828125 C 65.226562 -40.835938 65.953125 -36.566406 65.953125 -32.015625 C 65.953125 -27.585938 65.195312 -23.390625 63.6875 -19.421875 C 62.1875 -15.453125 60.035156 -11.957031 57.234375 -8.9375 C 54.441406 -5.925781 51.046875 -3.546875 47.046875 -1.796875 C 43.046875 -0.046875 38.554688 0.828125 33.578125 0.828125 Z M 33.578125 -10.0625 C 37.703125 -10.0625 41.222656 -11.070312 44.140625 -13.09375 C 47.066406 -15.125 49.328125 -17.816406 50.921875 -21.171875 C 52.523438 -24.523438 53.328125 -28.140625 53.328125 -32.015625 C 53.328125 -36.066406 52.523438 -39.800781 50.921875 -43.21875 C 49.328125 -46.632812 47.066406 -49.382812 44.140625 -51.46875 C 41.222656 -53.5625 37.703125 -54.609375 33.578125 -54.609375 C 29.453125 -54.609375 25.914062 -53.5625 22.96875 -51.46875 C 20.019531 -49.382812 17.757812 -46.632812 16.1875 -43.21875 C 14.625 -39.800781 13.84375 -36.066406 13.84375 -32.015625 C 13.84375 -28.140625 14.625 -24.523438 16.1875 -21.171875 C 17.757812 -17.816406 20.019531 -15.125 22.96875 -13.09375 C 25.914062 -11.070312 29.453125 -10.0625 33.578125 -10.0625 Z M 33.578125 -10.0625 "/></g></g></g></g></g></g><g clip-path="url(#481180cf84)"><path fill="#cbb26a" d="M 252.339844 2.796875 C 251.820312 3.792969 250.300781 6.058594 248.96875 7.832031 C 246.492188 11.121094 240.402344 19.671875 235.269531 27.066406 C 232.648438 30.84375 229.242188 35.492188 224.617188 41.605469 C 220.554688 46.972656 217.375 48.421875 216.554688 45.277344 C 216.320312 44.390625 216.664062 41.761719 217.316406 39.4375 C 220.195312 29.164062 219.421875 27.371094 215.066406 34.207031 C 213.585938 36.53125 210.136719 41.554688 207.398438 45.367188 C 201.9375 52.980469 202.242188 52.140625 196.960938 73.875 C 194.914062 82.289062 192.929688 89.988281 192.550781 90.980469 C 191.371094 94.085938 192.339844 95.050781 196.183594 94.617188 C 200.476562 94.132812 204.996094 96.109375 206.875 99.285156 C 207.652344 100.601562 209.617188 102.085938 211.574219 102.832031 C 213.421875 103.539062 215.707031 104.941406 216.65625 105.945312 C 218.542969 107.957031 221.621094 116.113281 221.621094 119.109375 C 221.621094 120.960938 221.503906 120.988281 216.082031 120.484375 C 207.703125 119.707031 203.34375 120.589844 201.914062 123.355469 C 200.691406 125.722656 195.738281 128.238281 192.304688 128.238281 C 188.339844 128.238281 180.207031 123.796875 170.074219 116.09375 C 156.886719 106.070312 152.410156 104.882812 127.824219 104.878906 C 114.679688 104.878906 107.1875 104.511719 102.128906 103.628906 C 98.203125 102.941406 94.792969 102.574219 94.554688 102.816406 C 94.3125 103.058594 94.757812 104.675781 95.539062 106.414062 C 97.171875 110.03125 96.957031 111.46875 94.726562 111.863281 C 89.195312 112.835938 73.472656 113.027344 66.179688 112.203125 C 56.191406 111.082031 40.601562 106.835938 31.90625 102.875 C 24.695312 99.585938 23.085938 99.414062 21.816406 101.785156 C 20.46875 104.300781 21.796875 105.246094 35.621094 111.585938 C 40.34375 113.753906 56.4375 118.800781 61.546875 119.714844 C 64.863281 120.308594 65.546875 122.019531 63.011719 123.378906 C 62.09375 123.867188 55.054688 124.214844 45.894531 124.222656 C 37.339844 124.230469 29.847656 124.546875 29.246094 124.929688 C 28.460938 125.425781 29.484375 126.238281 32.867188 127.800781 C 39.574219 130.894531 48.941406 133.0625 59.164062 133.894531 C 64.015625 134.289062 68.191406 134.816406 68.441406 135.0625 C 69.660156 136.285156 65.863281 137.714844 55.507812 139.945312 C 52.074219 140.683594 49.265625 141.597656 49.265625 141.980469 C 49.265625 142.359375 51.167969 143.230469 53.496094 143.910156 C 66.414062 147.699219 71.816406 149.605469 71.816406 150.375 C 71.816406 150.847656 71.066406 151.878906 70.152344 152.664062 C 67.875 154.609375 68.5 155.777344 72.6875 157.414062 C 76.105469 158.753906 80.777344 158.703125 82.691406 157.304688 C 84.113281 156.265625 89.851562 154.699219 92.757812 154.554688 C 95.546875 154.414062 95.574219 154.445312 95.3125 157.433594 C 95.167969 159.09375 95.394531 160.453125 95.816406 160.453125 C 97.121094 160.453125 102.707031 157.9375 104.960938 156.335938 C 108.035156 154.152344 109.796875 154.441406 112.890625 157.632812 C 115.3125 160.132812 116.09375 160.453125 119.746094 160.453125 C 123.59375 160.453125 126.460938 161.847656 127.511719 164.234375 C 127.667969 164.589844 128.757812 165.730469 129.933594 166.765625 L 132.074219 168.648438 L 135.875 166.96875 C 140.484375 164.925781 142.492188 164.855469 144.480469 166.65625 C 145.8125 167.859375 146.304688 167.894531 148.570312 166.9375 C 149.988281 166.339844 152.898438 165.683594 155.039062 165.484375 C 158.46875 165.164062 159.300781 165.417969 162.039062 167.621094 C 165.6875 170.550781 165.988281 170.589844 169.90625 168.605469 C 173.207031 166.929688 179.246094 165.691406 180.457031 166.4375 C 180.925781 166.730469 180.601562 169.050781 179.632812 172.34375 C 177.226562 180.523438 176.542969 186.433594 177.398438 191.664062 C 178.566406 198.761719 180.898438 209.066406 181.589844 210.152344 C 182.421875 211.460938 184.453125 210.644531 187.507812 207.78125 C 189.660156 205.761719 190.292969 205.542969 191.734375 206.316406 C 192.667969 206.816406 193.429688 207.574219 193.429688 208 C 193.429688 209.800781 198.050781 208.613281 201.398438 205.949219 C 203.496094 204.28125 205.832031 203.140625 207.144531 203.140625 C 211.800781 203.140625 217.671875 200.535156 220.253906 197.320312 C 221.625 195.613281 224.761719 193.066406 227.21875 191.667969 C 231.695312 189.121094 235.976562 185.191406 239.921875 180.019531 C 241.082031 178.503906 243.507812 176.511719 245.3125 175.59375 C 247.121094 174.679688 248.867188 173.523438 249.191406 173.03125 C 250.214844 171.476562 249.859375 167.894531 248.632812 167.421875 C 247.988281 167.175781 243.132812 167.191406 237.84375 167.457031 C 229.925781 167.855469 227.460938 167.691406 223.917969 166.53125 C 219.199219 164.988281 209.539062 159.011719 209.539062 157.636719 C 209.539062 157.160156 212.710938 153.660156 216.585938 149.851562 C 223.570312 142.992188 228.101562 136.15625 228.078125 132.527344 C 228.070312 131.566406 228.96875 129.699219 230.078125 128.382812 C 231.515625 126.675781 232.089844 125.039062 232.089844 122.65625 C 232.089844 119.703125 232.410156 119.136719 234.910156 117.660156 C 237.640625 116.050781 237.730469 115.84375 237.75 111.042969 C 237.789062 102.789062 239.765625 99.972656 250.660156 92.636719 C 255.730469 89.226562 260.332031 86.417969 260.882812 86.398438 C 261.4375 86.375 261.890625 85.785156 261.890625 85.082031 C 261.890625 84.097656 261.265625 83.894531 259.136719 84.179688 C 255.453125 84.675781 254.640625 83.636719 254.640625 78.421875 C 254.640625 74.300781 254.875 73.773438 258.46875 69.890625 C 265.332031 62.464844 268.648438 58.003906 272.628906 50.84375 C 274.253906 47.921875 275.582031 45.261719 275.582031 44.933594 C 275.582031 44.601562 273.136719 46.589844 270.144531 49.351562 C 264.308594 54.738281 257.507812 59.472656 254.988281 59.910156 C 253.691406 60.136719 253.453125 59.738281 253.558594 57.511719 C 253.625 56.042969 254.210938 54.230469 254.855469 53.484375 C 255.5 52.738281 257.113281 50.132812 258.441406 47.699219 C 262.503906 40.246094 264.53125 37.035156 268.53125 31.742188 C 272.386719 26.636719 274.148438 23.679688 275.589844 19.894531 C 276.28125 18.074219 276.207031 17.9375 274.90625 18.632812 C 272.429688 19.960938 268.460938 24.359375 260.675781 34.410156 C 256.558594 39.726562 251.71875 45.703125 249.921875 47.699219 C 246.90625 51.035156 246.546875 51.21875 245.347656 50.019531 C 244.144531 48.824219 244.277344 48.25 247.03125 42.773438 C 251.109375 34.660156 258.496094 22.417969 265.445312 12.261719 C 272.832031 1.460938 272.644531 1.789062 271.453125 1.789062 C 270.105469 1.789062 257.058594 15.265625 257.058594 16.660156 C 257.058594 17.265625 256.703125 17.886719 256.269531 18.03125 C 255.835938 18.179688 254.261719 20.589844 252.765625 23.390625 C 247.371094 33.492188 240.109375 40.425781 240.164062 35.414062 C 240.226562 29.585938 244.34375 19.226562 250.617188 9.109375 C 252.832031 5.542969 254.640625 2.253906 254.640625 1.804688 C 254.640625 0.359375 253.320312 0.929688 252.339844 2.796875 M 192.625 102.722656 C 191.519531 103.304688 189.082031 104.792969 187.210938 106.035156 C 184.644531 107.734375 183.15625 108.191406 181.167969 107.890625 C 172.183594 106.527344 175.0625 114.351562 184.804688 117.777344 C 191.484375 120.125 195.128906 119.925781 196.714844 117.132812 C 197.769531 115.28125 198.890625 114.71875 203.257812 113.847656 C 207.019531 113.101562 209.359375 113.03125 211.449219 113.609375 C 213.867188 114.277344 214.371094 114.207031 214.371094 113.210938 C 214.371094 111.242188 209.863281 107.296875 207.605469 107.296875 C 206.285156 107.296875 204.636719 106.292969 202.988281 104.480469 C 200.960938 102.253906 199.8125 101.660156 197.53125 101.664062 C 195.941406 101.667969 193.734375 102.144531 192.625 102.722656 " fill-opacity="1" fill-rule="evenodd"/></g></g></g></svg>